<?xml version="1.0" encoding="UTF-8"?><svg id="b" xmlns="http://www.w3.org/2000/svg" viewBox="0 0 1653.92 431.33"><defs><style>.d,.e{fill:#fff;}.f{fill:#ed1c24;}.g{fill:#d1d1d1;}.e,.h{stroke-width:5px;}.e,.h,.i,.j,.k,.l,.m,.n{stroke-linejoin:round;}.e,.h,.l{stroke:#fff;}.i{fill:#202020;}.i,.j,.k,.l,.m,.n{stroke-linecap:round;stroke-width:18.67px;}.i,.n{stroke:#d1d1d1;}.j{stroke:#000;}.j,.k,.l,.m,.n{fill:none;}.k{stroke:#ed1c24;}.m{stroke:#202020;}</style></defs><g id="c"><g><path class="d" d="M671.1,223.5l18.7,18.7v76l-19.3,19.3h-70.07v-114h70.68Zm-40.13,95h28.27v-76h-28.27v76Z"/><path class="d" d="M732.9,238.5v87.65c-2.2,2.29-4.07,4.2-5.61,5.74s-3.46,3.41-5.74,5.61h-15.18v-87.65c2.2-2.29,4.07-4.2,5.61-5.74s3.45-3.41,5.74-5.61h15.18Z"/><path class="d" d="M771.84,262.66l48.58,32.6v30.89l-11.35,11.35h-66.26v-8.98l7.52-7.52h43.56v-9.24l-48.58-32.47v-29.44l11.35-11.35h58.74v8.98l-7.52,7.52h-36.04v7.66Z"/><path class="d" d="M856.19,321h41.05v16.5h-50.82l-16.76-16.76v-82.24h60.19c1.5,1.5,2.73,2.75,3.7,3.76,.97,1.01,2.2,2.27,3.7,3.76v8.98h-41.05v66Z"/><path class="d" d="M985.95,238.5v82.24l-16.76,16.76h-63.36v-82.24l16.76-16.76h63.36Zm-53.59,82.5h27.06v-66h-27.06v66Z"/><path class="d" d="M1067.79,238.5l7.52,7.52v91.48h-19.93c-1.32-1.23-2.44-2.31-3.37-3.23-.92-.92-2-2.05-3.23-3.37v-36.04l-27.06-27.98v63.1l-7.52,7.52h-19.01v-99h26.53l27.06,27.59v-27.59h19.01Z"/><path class="d" d="M1160.45,238.5l7.52,7.52v91.48h-19.93c-1.32-1.23-2.44-2.31-3.37-3.23-.92-.92-2-2.05-3.23-3.37v-36.04l-27.06-27.98v63.1l-7.52,7.52h-19.01v-99h26.53l27.06,27.59v-27.59h19.01Z"/><path class="d" d="M1205.72,255v22.18h31.94v9.11l-7.52,7.52h-24.42v27.19h41.05v16.5h-50.82l-16.76-16.76v-82.24h60.19c1.5,1.5,2.73,2.75,3.7,3.76,.97,1.01,2.2,2.27,3.7,3.76v8.98h-41.05Z"/><path class="d" d="M1282.55,321h41.05v16.5h-50.82l-16.76-16.76v-82.24h60.19c1.5,1.5,2.73,2.75,3.7,3.76,.97,1.01,2.2,2.27,3.7,3.76v8.98h-41.05v66Z"/><path class="d" d="M1407.02,238.5v8.98l-7.52,7.52h-19.4v82.5h-17.69l-8.84-8.84v-73.66h-26.66v-8.98l7.52-7.52h72.6Z"/><path class="d" d="M1438.83,255v22.18h31.94v9.11l-7.52,7.52h-24.42v27.19h41.05v16.5h-50.82l-16.76-16.76v-82.24h60.19c1.5,1.5,2.73,2.75,3.7,3.76,.97,1.01,2.2,2.27,3.7,3.76v8.98h-41.05Z"/><path class="d" d="M1562.12,223.5l18.7,18.7v76l-19.3,19.3h-70.07v-114h70.68Zm-40.13,95h28.27v-76h-28.27v76Z"/></g><g><path class="f" d="M551.02,263.14c.14-.15,.22-.39,.23-.74,.02-.34,0-.56-.02-.64-.06-.17-.37-.47-.91-.89-.54-.42-.93-.69-1.17-.8,.42-.16,.53-.53,.31-1.13-.22-.59-.48-1.15-.77-1.67-.29-.52-.82-.64-1.58-.35-.11,.23-.23,.42-.37,.57-.28,.3-.5,.48-.67,.54-.25,.09-.58-.07-.98-.5-.4-.43-.78-.94-1.15-1.53-.36-.59-.7-1.16-1.01-1.73-.31-.56-.49-.93-.55-1.1-.47-1.27-.48-2.52-.02-3.76,.46-1.23,.51-2.32,.17-3.25-.02,.2-.15,.37-.39,.51-.24,.14-.49,.25-.74,.35-1.7-2.75-3.37-5.6-5-8.57-1.64-2.96-3.04-6.02-4.21-9.16-.13-.34-.49-1.39-1.1-3.14-.61-1.75-1.27-3.85-1.98-6.29-.71-2.44-1.4-5.06-2.05-7.86-.66-2.8-1.11-5.43-1.35-7.9-.24-2.47-.22-4.6,.08-6.41,.29-1.8,1.08-2.94,2.35-3.41,.51-.19,.98-.22,1.42-.09,.43,.13,.91,.1,1.42-.09,.59-.22,1.03-.53,1.32-.93,.29-.4,.68-.69,1.19-.88,.25-.09,.66-.05,1.21,.13,.55,.18,1.09,.39,1.61,.63,.52,.24,1,.48,1.42,.7,.42,.23,.65,.39,.68,.47,.16,.42,.06,.82-.28,1.19-.35,.37-.47,.68-.38,.94,.19,.51,.62,.69,1.29,.54,.67-.15,1.11,.07,1.33,.66,.47,1.27,.72,2.51,.73,3.71,.01,1.2-.7,2.46-2.15,3.77,.09,.25,.31,.39,.66,.41,.34,.02,.64-.02,.9-.12l1.37,3.69c.6,.07,1.2,.38,1.79,.93,.59,.55,.97,1.04,1.13,1.47,.03,.09-.05,.31-.26,.67-.2,.37-.42,.76-.65,1.18-.23,.42-.41,.85-.54,1.29-.13,.43-.15,.78-.05,1.03,.09,.25,.48,.45,1.16,.58,.68,.13,1.05,.29,1.11,.46-.42,.16-1.05,.42-1.88,.77-.83,.36-1.2,.67-1.11,.92,.16,.42,.4,.75,.72,.96,.32,.22,.52,.41,.58,.58l-2.55,.95c1.01,.11,1.86,.47,2.57,1.07,.71,.61,1.66,.69,2.85,.25l-1.64,1.04,.95,2.55c-1.1,.41-1.72,.91-1.84,1.48-.12,.58-.01,1.33,.34,2.27,.19,.51,.55,1.27,1.07,2.28,.52,1.01,1.25,1.35,2.18,1,.25-.09,.45-.21,.59-.36-.3,.5-.39,1.09-.28,1.77,.11,.68,.14,1.23,.1,1.63,.52,.1,1.28,.13,2.28,.09,1-.03,1.57,.12,1.69,.46,.09,.25,.07,.51-.08,.76-.15,.25-.31,.53-.49,.83-.17,.31-.31,.65-.42,1.02-.1,.38-.04,.86,.18,1.46,.28,.76,.77,1.16,1.46,1.2,.69,.03,1.39-.01,2.12-.14,.73-.12,1.43-.17,2.12-.14,.69,.03,1.18,.43,1.46,1.2,.16,.43-.01,.68-.51,.77-.5,.09-.67,.35-.51,.77,.16,.43,.41,.72,.76,.88,.35,.16,.59,.41,.71,.75-1.1,.41-1.87,.94-2.31,1.58,.18,.22,.61,.55,1.3,.97,.69,.42,1.45,.84,2.28,1.25,.83,.42,1.62,.8,2.38,1.14,.76,.35,1.29,.56,1.61,.63l-1.65,4.53-.03,.3c.28,.76,.79,1.28,1.51,1.54,.73,.26,1.5,.41,2.34,.44,.83,.03,1.56,.05,2.19,.05,.63,0,1.01,.18,1.14,.52,.13,.34,0,.7-.39,1.09-.39,.39-.5,.79-.35,1.22,.06,.17,.49,.35,1.29,.54,.79,.19,1.66,.37,2.6,.55,.94,.18,1.82,.34,2.64,.47,.82,.13,1.27,.18,1.36,.15l2.93-1.09c.85-.32,1.64-.46,2.37-.45,.73,.02,1.47,.06,2.22,.12,.75,.06,1.49,.1,2.22,.12,.73,.02,1.52-.13,2.37-.45,2.38-.88,4.3-2.01,5.77-3.38,1.47-1.37,2.6-2.88,3.39-4.52,.79-1.64,1.29-3.42,1.49-5.34,.21-1.91,.33-3.84,.38-5.79-.04-1.92-.08-3.98-.13-6.18-.05-2.2-.39-4.15-1.02-5.85-.41-1.1-1.02-2.08-1.82-2.94-.8-.86-1.38-1.76-1.73-2.69-.28-.76-.13-1.26,.46-1.48,.42-.16,.73-.18,.92-.05,.19,.12,.5,.1,.92-.05,1.02-.38,1.31-1.16,.86-2.35l1.65-.62c-.03-.08-.04-.23-.01-.43,.04-.4,.03-.69-.03-.86l.05,.13c-.09,.03-.33-.1-.72-.38-.4-.29-.77-.37-1.1-.24-.25,.09-.4,.54-.45,1.33-.05,.79-.45,1.33-1.21,1.61-.43,.16-1-.04-1.74-.58-.74-.55-1.48-1.19-2.24-1.92-.76-.73-1.43-1.5-2.01-2.29-.59-.8-.96-1.41-1.12-1.83-.09-.25-.27-.86-.54-1.83-.26-.96-.18-1.53,.24-1.68,.51-.19,1.11-.12,1.81,.2,.24-.38,.21-.73-.1-1.05-.31-.32-.74-.62-1.28-.9-.54-.28-1.05-.55-1.53-.81-.48-.25-.77-.51-.86-.77-.03-.08,.04-.35,.21-.8,.17-.45,.38-.94,.62-1.46,.24-.52,.42-1,.55-1.44,.13-.43,.18-.69,.15-.78l-4.36,1.91c-.06-.17,.14-.65,.62-1.46,.47-.8,.79-1.38,.95-1.73-.25-.68-.67-.96-1.25-.84-.58,.12-1.12,.03-1.62-.27,.82-1.17,1.69-1.94,2.63-2.28,.42-.16,.85-.12,1.27,.11,.42,.23,.8,.53,1.13,.89,.39-.24,.51-.57,.35-1-.03-.08-.42-.23-1.18-.43-.75-.2-1.64-.45-2.67-.75-1.03-.29-2.05-.56-3.06-.82-1.01-.25-1.78-.42-2.29-.52,.23,.11,.66,.41,1.28,.9s.98,.87,1.07,1.12c-1.27,.47-2.57,.38-3.88-.3-1.31-.67-2.14-1.47-2.49-2.41-.25-.68-.23-1.2,.08-1.55,.3-.35,.67-.61,1.09-.77,.34-.13,.55-.13,.64-.02,.09,.11,.19,.27,.32,.46,.12,.2,.25,.34,.38,.44,.13,.1,.41,.07,.83-.09,.34-.13,.57-.41,.7-.84,.13-.43,.21-.92,.25-1.47,.04-.54,.1-1.03,.19-1.45,.09-.42,.34-.71,.77-.86,.26-.1,.58-.07,.97,.07,.39,.14,.82,.32,1.29,.54,.46,.21,.87,.45,1.21,.71,.34,.26,.52,.43,.56,.52-.22,.18-.4,.34-.54,.49-.05,.12-.1,.18-.14,.2-.04,.02-.09,.08-.14,.2l-.08,.17c.06,.17,.19,.44,.37,.8,.18,.37,.39,.85,.61,1.44,.16,.43,.44,.78,.83,1.07s.81,.35,1.23,.19c-.25,.09-.4-.16-.43-.78-.04-.61-.06-1.33-.08-2.15-.01-.81,0-1.62,.05-2.41,.04-.79,.02-1.31-.08-1.57-.25-.68-.55-1.22-.89-1.62-.34-.4-.87-.91-1.58-1.51l2.93-1.09c-.5-.3-1.07-.4-1.71-.31-.64,.09-1.22,.24-1.73,.43-.34,.13-.75,.71-1.23,1.76-.48,1.05-.77,1.69-.88,1.92-.49,0-.82-.13-1-.35-.18-.22-.32-.46-.41-.72-.09-.25-.22-.47-.39-.65-.16-.18-.43-.25-.8-.21,.33,1.14,.4,1.98,.22,2.53-.18,.55-.5,.98-.96,1.3-.46,.32-1.05,.56-1.76,.73-.71,.17-1.45,.39-2.21,.68-.34,.13-1.01-.06-2.02-.55-1.01-.5-1.57-.91-1.7-1.25-.32-.85-.37-1.51-.15-1.97,.21-.46,.53-.85,.95-1.15,.42-.3,.86-.61,1.32-.93,.46-.32,.74-.73,.84-1.25-.55-.18-1.03-.24-1.45-.19-.41,.06-.77,.14-1.07,.25-.3,.11-.58,.12-.86,.03-.28-.09-.54-.48-.79-1.15-.25-.68-.33-1.13-.22-1.37-.17,.06-.29,.13-.36,.21-.07,.08-.15,.13-.23,.16-.76,.28-1.26,.13-1.48-.47-.16-.42-.18-.73-.05-.92,.12-.19,.12-.46,0-.79-.25-.68-.87-.91-1.85-.69-.98,.22-1.76,.34-2.33,.36l.4-.87c.34-.13,1.12-.49,2.35-1.09,1.23-.6,1.99-1.01,2.3-1.22,.51-.19,.81-.67,.92-1.43,.1-.76,.29-1.43,.55-2.02,.2,.02,.56-.06,1.07-.25s1.06-.39,1.65-.62c.85-.32,1.7-.63,2.55-.95,.85-.32,1.41-.76,1.67-1.35,1.87-.69,3.21-.73,4.01-.12,.81,.62,1.44,1.52,1.88,2.71,.63,1.7,1.42,3.31,2.38,4.84,.95,1.53,1.56,2.63,1.81,3.31,.41,1.1,.72,1.74,.92,1.9,.21,.17,.37,.22,.5,.18,.13-.05,.29,.01,.5,.18,.21,.17,.5,.76,.88,1.77,.35,.16,.88,.42,1.6,.78,.71,.36,1.46,.69,2.25,.98,.78,.29,1.54,.56,2.26,.82,.72,.26,1.2,.45,1.44,.55l2.42,6.49c-.41,.44-1,.88-1.76,1.31-.76,.43-1.11,.73-1.04,.9l1.28,3.44,2.67-.99c-.16-.42-.3-1.05-.41-1.88-.12-.83,.04-1.32,.46-1.48,.16,.43,.31,.9,.46,1.42,.15,.53,.33,1.09,.55,1.68,.47,1.27,1.02,2.54,1.63,3.81,.62,1.27,1.27,2.45,1.97,3.54-.32,.7-.64,1.13-.97,1.3-.32,.17-.55,.42-.66,.75-.12,.33-.12,.91,0,1.74,.11,.83,.49,2.23,1.13,4.21,1.98,.13,3.19,.53,3.63,1.19,.44,.66,.94,1.75,1.51,3.28,.19,.51,.24,1.22,.14,2.12-.1,.91-.22,1.82-.36,2.74-.14,.92-.3,1.73-.47,2.42-.18,.7-.25,1.08-.22,1.17,.19,.51,.2,.87,.04,1.07-.17,.21,.05,.2,.64-.02,.68-.25,1.08-.52,1.22-.82,.13-.29,.54-.56,1.22-.82,.2,.02,.39,0,.56-.06l.76-.28c-1.09,.7-1.99,1.73-2.69,3.1-.7,1.37-1.56,2.49-2.59,3.36l.84,.7c.33-.41,.71-.75,1.15-1.01,.43-.26,.86-.47,1.29-.62,.35,.94,.41,1.56,.19,1.88-.22,.32-.54,.56-.96,.72-.43,.16-.83,.36-1.23,.6-.39,.24-.65,.73-.77,1.44,.03,.09,.19,.12,.48,.11,.12,.05,.26,.05,.43-.01l.25-.09c.17-.06,.28-.15,.33-.27l.41-.44c.25-.1,.53,.05,.81,.42,.29,.38,.46,.65,.52,.82-1.78,.66-2.31,1.97-1.58,3.92,.06,.17,.24,.25,.52,.24,.29,0,.58-.05,.9-.12,.31-.07,.61-.11,.9-.12s.48,.11,.57,.37c.06,.17,.09,.43,.07,.77-.02,.35-.24,.6-.66,.75-.17,.06-.51,.07-1.01,.01-.5-.05-.93-.02-1.26,.11-.22,.95-.37,1.8-.43,2.55-.06,.75-.11,1.47-.14,2.15-.03,.69-.09,1.39-.17,2.09-.08,.71-.3,1.47-.67,2.28-.34,.9-.87,1.82-1.58,2.76-.71,.94-.88,1.78-.51,2.51,.43,.9,.52,1.74,.28,2.5-.25,.77-.69,1.51-1.34,2.24-.65,.72-1.42,1.44-2.31,2.16-.89,.72-1.77,1.48-2.63,2.28-.28,.3-.71,.89-1.29,1.79-.59,.89-1.18,1.45-1.77,1.67-1.19,.44-2.29,.54-3.3,.28-1.01-.25-2.03-.19-3.04,.19-.93,.35-1.49,.75-1.66,1.2-.17,.45-.2,1.09-.08,1.92l-4.33,1.61c-.96-.51-1.89-.72-2.77-.64-.89,.09-1.79,.31-2.73,.65-.17,.06-.38,.16-.61,.3-.24,.14-.49,.25-.74,.35-2.04,.76-3.66,.88-4.87,.36-1.21-.52-2.27-1.16-3.18-1.93-.92-.77-1.79-1.49-2.61-2.15-.82-.66-1.83-.77-3.02-.33-.34,.13-.65,.27-.93,.42-.28,.16-.63,.31-1.06,.47-.25,.09-.72,0-1.41-.27-.68-.28-1.48-.61-2.4-.99-.92-.38-1.84-.79-2.77-1.21-.93-.43-1.73-.76-2.4-.99l-2.08-5.6Zm-15.69-65.9c-.17,.06-.56,.24-1.19,.51-.62,.28-.94,.66-.95,1.15l2.42-.9-.28-.76Zm2.22,2.07c-.68,.25-1.27,.55-1.77,.88-.51,.33-.63,.84-.38,1.52,.68-.25,1.27-.54,1.77-.88,.5-.33,.63-.84,.38-1.52Zm-.89,25.26c-.34,.13-.43,.4-.27,.82,.13,.34,.36,.45,.7,.32,.34-.13,.45-.36,.32-.7-.16-.42-.41-.57-.75-.45Zm3.64-6.57c-.25,.09-.32,.31-.19,.65,.13,.34,.32,.46,.57,.37,.34-.13,.45-.36,.32-.7-.13-.34-.36-.44-.7-.32Zm.6,26.15c-.34,.13-.49,.23-.46,.32,.06,.17,.18,.22,.35,.16,.17-.06,.22-.18,.16-.35l-.05-.13Zm7.57-6.15l1.78-.66c-.97-.02-1.63,.03-1.97,.15l.19,.51Zm5.16,28.66c-.17,.06-.22,.18-.16,.35,.09,.25,.23,.35,.4,.29,.11-.23,.14-.39,.11-.48-.06-.17-.18-.22-.35-.16Zm2.47-22.95l-.3-.03c-.09,.03-.15,.11-.21,.22l-.13,.05c.06,.17,.22,.21,.48,.11,.17-.06,.22-.18,.16-.35Zm-.19,19.35c.34-.13,.6-.46,.78-1.02l-1.02,.38,.24,.64Zm4.55-7.64l.64-.24-.24-.64-.64,.24,.24,.64Zm11.63-66.5c-.25,.09-.35,.23-.29,.4,.06,.17,.22,.21,.48,.11,.08-.03,.1-.13,.03-.3-.06-.17-.14-.24-.22-.21Zm3.19,78.67c.41,.33,.68,.59,.8,.79,.12,.19,.39,.22,.82,.06l.03-.3-.77-3.63c-.09,.03-.23-.03-.44-.2-.21-.16-.52-.17-.95,0-.08,.03-.07,.46,.04,1.29,.11,.83,.24,1.41,.36,1.75l.09,.25Zm3.92-2.33l1.27-.47-.38-1.02-1.27,.47,.38,1.02Zm.54-88.9c-.34,.13-.45,.36-.32,.7,.13,.34,.36,.45,.7,.32,.34-.13,.45-.36,.32-.7-.13-.34-.36-.45-.7-.32Zm1.86,17.86c.42-.16,.74-.47,.96-.94l-1.15,.43,.19,.51Zm11.01,7.79c.48-.27,.61-.71,.38-1.3l-.76,.28,.38,1.02Zm.96-4.42c-.17,.06-.33,.15-.49,.25-.15,.11-.27,.32-.34,.64,.12,.05,.22,.06,.3,.03,.11,.05,.26,.05,.43-.02,.17-.06,.35-.15,.55-.28,.2-.12,.32-.38,.36-.79l-.38,.14-.25,.09c-.09,.03-.14,0-.17-.08Zm.66,17.73c-.17,.06-.24,.14-.21,.22,.09,.25,.23,.35,.4,.29,.17-.06,.22-.18,.16-.35l-.35-.16Zm3.37-5.75c.17-.06,.46-.19,.87-.4,.41-.2,.59-.48,.55-.86-.06-.17-.31-.32-.75-.45-.44-.13-.74-.16-.91-.1l-.17-.08-.21,.22,.62,1.66Zm2.05,1.99c-.03-.08-.17-.08-.43,.02s-.37,.19-.33,.27c.03,.09,.17,.08,.43-.01,.25-.09,.37-.18,.33-.27Zm.17,46.02c-.17,.06-.24,.14-.21,.22,.09,.25,.23,.35,.4,.29,.08-.03,.1-.13,.03-.3-.06-.17-.14-.24-.22-.21Zm.84-30.46c.47,1.27,.98,2.24,1.52,2.91,.54,.67,1.66,.69,3.35,.06-.44-1.19-.96-2.13-1.56-2.83-.6-.69-1.7-.74-3.31-.14Zm.88-10.47c-.43,.16-.57,.41-.45,.75,.09,.25,.35,.3,.78,.14,.25-.09,.33-.27,.24-.52-.13-.34-.32-.46-.57-.37Zm.44-9.73c.51-.19,.76-.55,.76-1.08,0-.53-.05-.92-.15-1.18l-1.27,.47,.66,1.78Zm.69,31.05l1.21,1.29-.43-1.15-.78-.15Zm.25,15.85c.06,.17,.38,.25,.95,.22,.57-.02,1.03-.09,1.37-.22-.41-1.1-1-1.51-1.76-1.23-.59,.22-.78,.63-.56,1.22Zm3.16-11.76c-.68,.25-.91,.61-.69,1.05,.22,.45,.42,.93,.61,1.44,.34-.13,.54-.3,.61-.52,.06-.22,.07-.46,.02-.73-.05-.27-.08-.53-.07-.77,0-.24,.11-.5,.3-.76l-.76,.28Zm-.77-22.32c.16,.43,.51,.66,1.06,.69,.54,.04,1.03-.02,1.45-.18l-.47-1.27-2.04,.76Z"/><path class="f" d="M684.16,157.5c-.68,.25-1.2,.62-1.55,1.09-.36,.47-.34,1.22,.03,2.23l-.51,.19c-.03-.08-.14-.19-.33-.31-.19-.12-.37-.15-.54-.09l-.17-.08c-1.36,.51-1.78,1.44-1.28,2.8,.03,.09,.08,.14,.13,.17,.06,.03,.1,.08,.13,.17,.18-.55,.62-.98,1.33-1.29,.7-.31,1.27-.54,1.7-.7l.28,.76c.03,.08,.04,.37,.03,.86-.01,.49-.05,.79-.1,.91l.05,.13,.14,.38c.2,.02,.59,.17,1.18,.43,.58,.27,.95,.47,1.09,.61l.14,.38,.1,.25c.03,.08,.09,.11,.17,.08,.19,.51,.24,1.05,.16,1.6-.08,.56-.12,1.23-.12,2l-1.6-.42c.03,.09,.09,.31,.17,.66,.08,.36,.16,.62,.22,.79,.19,.51,.43,.83,.72,.96,.29,.13,.57,.17,.84,.12,.27-.05,.56-.06,.86-.03,.3,.03,.62,.23,.94,.59,.06,.17,.03,.33-.11,.48-.14,.15-.23,.28-.29,.4-.79,1.26-.9,2.65-.33,4.18,.03,.09,.19,.27,.49,.54,.15,.14,.32,.22,.52,.24l.09,.25c.03,.09,.08,.16,.16,.23,.07,.07,.13,.15,.16,.23,.35,.93,.27,1.71-.22,2.33-.5,.62-.6,1.31-.32,2.07,.32,.85,.83,1.53,1.55,2.03,.72,.51,1.25,1.22,1.6,2.16,.06,.17,.12,.46,.18,.87,.06,.41,.1,.66,.13,.75,.16,.43,.31,1.02,.45,1.79,.14,.77,.27,1.52,.4,2.24,.13,.73,.24,1.36,.34,1.9,.1,.54,.11,.83,.03,.86l-1.4,.52,1.75,4.71c.59-.22,1.15-.02,1.68,.61,.52,.63,.93,1.32,1.21,2.09-.02,.2,0,.39,.06,.56-.05,.12-.05,.26,.01,.43l.05,.13c-.15-.14-.37-.34-.67-.62-.3-.27-.55-.42-.75-.45,.03,.08-.08,.17-.33,.27,.25,.68,.59,1.33,1.01,1.94,.42,.62,1.06,.77,1.91,.45,.28,.76,.76,1.92,1.43,3.45,.67,1.54,1.21,3.12,1.62,4.76,.41,1.64,.6,3.16,.55,4.58-.05,1.42-.71,2.37-1.99,2.84l-.52-1.4-.38,.14-.33,3.02c-.98-.31-2.08-.46-3.28-.45-1.2,.01-2.31,.21-3.33,.59-.43,.16-1,.61-1.74,1.37-.73,.76-1.26,1.48-1.58,2.18-.04-.37-.2-.94-.49-1.7-.28-.76-.5-1.21-.65-1.35-.03-.08-.27-.21-.72-.38-.45-.17-.91-.36-1.37-.58-.47-.21-1.12-.4-1.95-.58-.17,.06-.38,.41-.63,1.03-.25,.63-.46,.97-.63,1.03-.09,.03-.34-.07-.76-.3-.42-.23-.68-.47-.78-.73l.83-.89-1.33-3.56-1.53,.57-.43-1.15c-.68,.25-1.11,.46-1.29,.62-.18,.16-.48,.32-.91,.48-.34,.13-.61,.11-.82-.06-.21-.16-.39-.34-.55-.52-.16-.18-.33-.36-.49-.54-.16-.18-.37-.22-.63-.13-.51,.19-.66,.83-.45,1.91,.21,1.08,.36,1.75,.46,2-.17,.06-.4-.09-.68-.47-.29-.38-.46-.65-.52-.82l-2.42-6.49c-.13-.34-.37-.47-.72-.38-.36,.08-.77,.14-1.24,.17-.47,.03-.99-.14-1.56-.51-.57-.37-1.15-1.21-1.74-2.54l-.25,.09,2.13,5.73-.45,.75c-.91-.63-1.63-1.2-2.17-1.73-.54-.53-.97-1.25-1.32-2.19-.16-.42-.16-1.03-.02-1.81,.15-.78,.32-1.54,.52-2.3,.2-.75,.42-1.41,.64-1.98,.22-.57,.28-.88,.16-.93l-3.37-1.65,1.56,4.2c-.68,.25-.98,.63-.89,1.13,.09,.5-.09,1.07-.52,1.72l-1.36-.94-2.27-6.11c-.16-.42-.47-.55-.94-.38-.47,.17-.79,.29-.95,.36-.85,.32-1.49,.75-1.91,1.29-.43,.55-.16,1.46,.8,2.74l-2.5-.08-.1-.26c-.28-.76-.19-1.69,.27-2.78,.46-1.09,.75-2,.87-2.72-.3-.27-.7-.46-1.22-.56-.52-.1-1.06-.13-1.64-.12-.57,.02-1.16,0-1.76-.07-.6-.06-1.11-.26-1.52-.59l1.18,3.18c-1.02-.39-2.14-.87-3.36-1.43-1.22-.56-2.32-1.09-3.28-1.6l-.59,1.52c-.09,.03-.27,.17-.57,.43-.29,.25-.47,.44-.52,.55l.26,8.89,.38,1.02c.25,.68,.56,1.17,.91,1.47,.35,.3,.67,.84,.96,1.6,.22,.59,.28,1.08,.18,1.46-.1,.38-.37,1.03-.79,1.96,1.09,2.4,2.25,4.69,3.5,6.88,1.25,2.19,2.35,4.56,3.3,7.11,.79,2.12,1.29,3.92,1.5,5.38,.21,1.47-.23,3.08-1.32,4.84l-.09-.25-.09-.25,.4-2.03c.05-.12,0-.32-.15-.6-.15-.28-.25-.47-.28-.55-.68,.25-1.14,.32-1.37,.22-.23-.11-.6-.07-1.11,.12,.03,.08,0,.14-.08,.17-.05,.12-.12,.19-.21,.22,.39,1.3,.66,2.63,.82,3.97,.16,1.34-.57,2.31-2.18,2.91l-.38,.14c-.72-.89-1.4-1.61-2.03-2.14-.64-.54-1.23-1.02-1.77-1.44-.55-.43-1.06-.96-1.54-1.6-.48-.64-.94-1.56-1.38-2.75-.41-1.1-.61-2.02-.59-2.75,.02-.73-.15-1.56-.49-2.5-.63-1.7-1.58-3.35-2.86-4.95-1.27-1.6-2.26-3.34-2.95-5.21-.35-.93-.51-1.77-.49-2.5s-.15-1.56-.49-2.5c-.35-.93-.86-2.17-1.52-3.71-.67-1.54-1.39-3.08-2.16-4.63-.77-1.55-1.51-2.96-2.23-4.24-.72-1.28-1.34-2.11-1.87-2.49l1.02-.38c-.25-.68-.66-1.25-1.22-1.72-.56-.47-.98-1.08-1.27-1.85-.19-.51-.06-.82,.38-.94,.44-.11,.53-.51,.28-1.19-.28-.76-.69-1.21-1.23-1.35-.54-.14-.98-.68-1.32-1.61-.25-.68-.38-1.4-.38-2.18,0-.77-.12-1.5-.38-2.18-.22-.59-.66-.86-1.32-.81-.66,.05-1.28-.2-1.87-.75-.69-1.58-1.43-2.87-2.24-3.88-.81-1-1.48-2.23-2.02-3.67-.19-.51-.2-.87-.04-1.07,.16-.21,.35-.37,.54-.49,.2-.12,.38-.28,.54-.49,.16-.21,.17-.52,.01-.95l-.19-.51c-.03-.08-.22-.26-.56-.52-.34-.26-.52-.43-.56-.52-.03-.08-.04-.49-.02-1.22,.02-.73,.06-1.47,.12-2.22,.06-.75,.14-1.45,.23-2.11,.09-.66,.18-1.01,.27-1.04,.55,.18,.95,.47,1.19,.86,.24,.39,.7,.46,1.38,.21,1.02-.38,1.78-1,2.28-1.86,.5-.86,1.22-1.47,2.15-1.81l1.15-.43c-.25,.09-.3,.35-.15,.78,.25,.68,.54,1.13,.86,1.35,.32,.22,.66,.36,1.02,.42,.36,.06,.69,.16,.98,.29,.29,.13,.53,.45,.72,.96s.16,.95-.08,1.33c.13,.34,.32,.46,.57,.37l.42-.44,.41-.44c.08-.03,.25-.04,.49-.04,.24,0,.4,.09,.46,.26l1.41,2.23c.36,.45,.79,.63,1.29,.53,.5-.09,1.07-.04,1.72,.16,.65,.19,1.37,.75,2.14,1.67,.78,.92,1.62,2.61,2.54,5.07,.34-.13,.52-.36,.53-.71,.02-.34-.03-.72-.12-1.11-.1-.4-.17-.78-.21-1.15-.04-.37,.15-.63,.57-.79,.25-.09,.6,.06,1.05,.48,.44,.41,.92,.91,1.43,1.5,.51,.59,.96,1.17,1.37,1.74,.41,.57,.66,.99,.75,1.24,.22-.18,.64-.36,1.25-.54,.61-.18,1.23-.26,1.86-.26,.63,0,1.24,.14,1.82,.41,.58,.27,.98,.7,1.2,1.29l-.16,.35-.16,.35c-.05,.12-.06,.22-.03,.3l.38,1.02c1.27-.47,2.14-.68,2.6-.61,.46,.07,.82,.32,1.08,.76,.26,.44,.54,1.01,.85,1.71,.31,.71,.94,1.42,1.88,2.13,.67-.54,1.67-.57,3-.1,1.33,.47,2.65,1.21,3.95,2.23,1.3,1.02,2.43,2.12,3.4,3.3,.97,1.19,1.47,2.21,1.5,3.06l.62-1.83c.67,.24,1.38,.6,2.14,1.09,.76,.49,1.53,1.05,2.29,1.68,.77,.63,1.45,1.25,2.06,1.84,.61,.6,1.05,1.13,1.32,1.61,.75-.57,1.45-.78,2.08-.63,.64,.15,1.23,.39,1.79,.71,.56,.32,1.11,.65,1.67,.97,.56,.32,1.19,.4,1.9,.23l-.09-.25-.05-.13c-.18-.22-.35-.55-.51-.97-.16-.42-.36-.83-.6-1.23-.24-.39-.5-.83-.78-1.31l-.76,.28c-.06-.17-.07-.51-.01-1.01,.05-.5,.16-1.05,.33-1.64,.16-.59,.35-1.14,.54-1.65,.2-.51,.36-.83,.5-.98l-2.13-5.73c-.03-.08-.03-.28,0-.58,.03-.3,.02-.54-.05-.71-.06-.17-.26-.56-.58-1.16-.32-.6-.56-.97-.71-1.11l-.47-1.27c-.54-1.44-.98-2.82-1.32-4.14-.35-1.32-.79-2.7-1.32-4.14l-.24-.64c-.06-.17-.3-.66-.7-1.48-.4-.82-.68-1.29-.82-1.43-.09-.25-.01-.43,.24-.52,.17-.06,.41-.13,.72-.2,.31-.07,.58-.05,.82,.06,.11-.23,.11-.67,.02-1.31-.09-.64-.22-1.32-.39-2.03-.17-.71-.35-1.39-.54-2.04-.19-.65-.35-1.15-.48-1.49l-.09-.25c-.65-.43-1.35-.78-2.12-1.02-.77-.24-1.36-.92-1.77-2.02-.09-.25-.07-.5,.08-.75,.15-.25,.35-.49,.6-.73,.25-.24,.44-.5,.57-.79,.13-.29,.11-.69-.08-1.2l1.65-.62c-.66-1.78-1.36-3.46-2.08-5.02-.73-1.56-1.39-3.15-1.99-4.77l-.19-.51-.15-1.97c.49,.01,.97,.41,1.46,1.2,.49,.79,.76,1.26,.82,1.43l1.02-.38c-.44-1.19-1.04-2.27-1.79-3.25-.75-.98-1.35-2.06-1.79-3.25-.38-1.02-.36-1.8,.07-2.35,.43-.54,1.06-.97,1.91-1.29,.68-.25,1.2-.21,1.57,.14,.37,.35,.68,.74,.94,1.17,.26,.44,.51,.85,.75,1.24,.24,.39,.53,.53,.87,.4l2.04,5.47c.03,.09,.41,.26,1.14,.52,.72,.26,1.25,.43,1.56,.5l.13-.05c.85-.31,1.31-.7,1.38-1.17,.07-.46,.02-.92-.16-1.39-.17-.47-.35-.93-.52-1.4-.17-.47-.05-.92,.36-1.37l.21-.22,.17,.08c.15,.14,.42,.48,.81,1,.39,.53,.82,1.1,1.28,1.7,.46,.6,.96,1.14,1.47,1.62,.52,.49,.99,.79,1.43,.92l-1.73,4.7,.47,1.27c.23,.11,.85,.14,1.85,.11,1-.03,1.67-.11,2.01-.24l1.27,1.85Zm-69.31,20.14c-.2-.02-.26,.08-.18,.29,.08,.21,.2,.29,.37,.22,.14-.15,.18-.29,.14-.41-.05-.13-.16-.16-.33-.1Zm10.71,33.84c-.2-.02-.26,.07-.18,.29,.08,.21,.2,.29,.37,.22,.21-.46,.15-.63-.19-.51Zm9.68-12.15l.64-.24-.28-.76-.35,1Zm1.18,6.66c.11-.23,.05-.31-.16-.23-.21,.08-.29,.2-.22,.37,.15,.14,.26,.19,.35,.16,.08-.03,.1-.13,.03-.3Zm.1-3.23c.13,.34,.24,.64,.33,.89,.09,.25,.4,.43,.92,.53l-1.18-3.18c-.39,.24-.53,.54-.4,.87,.13,.34,.24,.64,.33,.89Zm1.51,7.56l.76-.28-.52-1.4-.76,.28,.52,1.4Zm.12,4.6c.33-.41,.4-.87,.21-1.38l-.64,.24,.43,1.15Zm.43,29.98c-.2-.02-.25,.09-.16,.35,.09,.26,.23,.35,.4,.29,.01-.49-.07-.7-.24-.64Zm.15-55.27l.57,.37-.62-1.66c-.09,.03-.14,.15-.16,.35-.02,.2-.02,.35,.01,.43l.1,.25,.09,.25Zm1.37,3.69c-.2-.02-.25,.09-.16,.35,.1,.25,.23,.35,.4,.29,.05-.11,.05-.26-.01-.43-.06-.17-.14-.24-.22-.21Zm.49,6.77c.22,.59,.58,1.23,1.08,1.92,.5,.69,1.13,.88,1.89,.6,.25-.09,.32-.31,.19-.65-.19-.51-.64-1.26-1.35-2.25-.71-.99-1.31-1.49-1.79-1.51-.13,.43-.2,.75-.22,.95-.02,.2,.05,.51,.2,.94Zm5.36,35.83c-.43,.16-.57,.43-.42,.81,.14,.38,.42,.49,.85,.34,.25-.09,.31-.33,.17-.72-.14-.38-.34-.52-.59-.43Zm2.04-34.24l-.24-.64-.51,.19,.75,.45Zm2.99-.53c-.2-.02-.25,.12-.14,.41,.11,.3,.25,.42,.42,.35,.14-.15,.17-.33,.09-.54-.08-.21-.2-.29-.37-.22Zm8.31,.53c-.2-.02-.25,.09-.16,.35s.23,.35,.4,.29c.27-.58,.19-.79-.24-.64Zm.66,1.78c-.43,.16-.56,.45-.4,.87,.16,.43,.45,.56,.87,.4,.34-.13,.43-.4,.27-.83-.16-.42-.41-.57-.75-.45Zm2.32,1.17c-.43,.16-.57,.43-.42,.81,.14,.38,.42,.49,.85,.34,.25-.09,.31-.33,.17-.72-.14-.38-.34-.53-.6-.43Zm4.79-60.33c-.17,.06-.18,.31-.02,.73,.16,.43,.32,.61,.49,.54,.42-.16,.56-.45,.4-.87-.16-.42-.45-.56-.87-.4Zm2.12,62.55c-.14,.15-.4,.54-.8,1.17-.39,.63-.51,1.16-.35,1.58l1.91-.71-.76-2.04Zm1.24-38.72c-.25,.09-.3,.35-.14,.78,.16,.43,.36,.59,.62,.49s.3-.35,.15-.78c-.16-.42-.36-.59-.62-.49Zm4.94,19.9c-.17,.06-.19,.27-.06,.6,.13,.34,.27,.48,.44,.42,.34-.13,.45-.36,.32-.7-.13-.34-.36-.45-.7-.32Zm1.8-34.87c.8-.97,.98-2.05,.53-3.24l-1.53,.57,1,2.67Zm1.41,23.25c-.23-.11-.29-.01-.18,.29,.11,.3,.25,.41,.42,.35,.05-.11,.05-.26-.01-.43-.06-.17-.14-.24-.22-.21Zm.26,8.89c-.34,.13-.43,.4-.27,.83,.16,.43,.41,.57,.75,.45,.17-.06,.18-.31,.02-.73-.16-.42-.32-.6-.49-.54Zm.08-17.71c-.17,.06-.16,.35,.03,.86,.19,.51,.37,.73,.54,.67,.34-.13,.41-.44,.22-.95-.19-.51-.46-.7-.79-.57Zm2.37,12.6l.89-.33-.7-.32-.19,.65Zm.57,15.15c-.34,.13-.43,.4-.27,.83,.16,.43,.41,.57,.75,.45,.34-.13,.43-.4,.27-.83-.16-.42-.41-.57-.75-.45Zm-.13-29.95l.76-.28-.95-.22,.19,.51Zm.95,2.55c.11-.23,.03-.3-.22-.21-.25,.09-.35,.23-.29,.4,.15,.14,.29,.18,.41,.14s.16-.15,.1-.32Zm-.05,14.66c-.17,.06-.18,.29-.04,.67,.14,.38,.3,.54,.47,.48,.25-.09,.31-.33,.17-.72-.14-.38-.34-.52-.6-.43Zm.9,2.42l.23-.95-.51,.19,.28,.76Zm1.05,37.87l.51-.19-.66-1.78-.51,.19,.66,1.78Zm.1-48.01c-.17,.06-.19,.27-.06,.6,.13,.34,.27,.48,.44,.41,.25-.09,.32-.31,.19-.65-.13-.34-.32-.46-.57-.37Zm.4,32.61c-.25,.09-.31,.33-.17,.72s.34,.52,.6,.43,.31-.33,.17-.71c-.14-.38-.34-.53-.6-.43Zm3.14,16.22l.33-.27,.75-.71-1.27,.47,.19,.51Zm1.76-36.16c-.23-.11-.25,.09-.06,.6,.19,.51,.35,.69,.49,.54,.19-.26,.23-.54,.12-.84-.11-.3-.29-.4-.55-.3Zm-.08,32.49c.41,1.1,.83,1.77,1.25,2,.42,.23,1.1,.17,2.04-.18-.22-.59-.61-1.12-1.17-1.59-.56-.47-1.27-.54-2.11-.23Zm5.28,.94c-.34,.13-.42,.42-.25,.89,.17,.47,.43,.64,.77,.51,.17-.06,.17-.33,0-.79-.17-.47-.35-.67-.52-.61Z"/></g><g><g><path class="j" d="M138.56,161.9c3.35,2.73,7.94,5.42,13.56,6.21,7.37,1.03,8.38-2.35,20.16-2.23,6.3,.06,11.06,.25,16.08,3.24,4.83,2.88,8.31,7.55,9.69,13,1.38,5.45,.54,11.22-2.34,16.05-3.76,6.52-3.84,14.55-.19,21.14,3.65,6.59,10.48,10.8,18.01,11.08,7.53,.28,14.66-3.4,18.78-9.71,4.13-6.3,11.25-9.98,18.78-9.7,6.82,.25,14.18,4.16,18.01,11.07,5.76,10.41,.11,20.62-.19,21.14"/><path class="j" d="M10.57,9.33c-.93,5.83-1.82,14.66-.75,25.3,1.38,13.7,2.7,26.79,12.67,34.93,6.75,5.51,16.72,8.15,25.41,7.01,9.33-1.22,12.99-6.27,21.59-4.72,1.43,.26,8.05,1.45,12.16,6.76,4.97,6.42,.9,11.89,3.37,26.91,1.12,6.81,2.15,13.05,6.73,19.26,.69,.94,2.82,3.71,6.17,6.44"/><path class="i" d="M111.47,280.04l313.19-68.53c3.09-.68,6.27,1.87,6.82,4.37l26.94,123.12c.68,3.09-1.28,6.14-4.37,6.82l-313.19,68.52c-3.09,.68-6.27-1.87-6.82-4.37l-26.94-123.12c-.68-3.09,1.28-6.14,4.37-6.82h0Z"/><rect class="g" x="227.57" y="272.17" width="103.11" height="45.42" transform="translate(-56.58 66.47) rotate(-12.34)"/><rect class="g" x="249.95" y="328.43" width="79.79" height="33.76" rx="10" ry="10" transform="translate(-67.11 69.93) rotate(-12.34)"/><path class="l" d="M247.13,389.84l-22-100.53c-.68-3.09,1.28-6.15,4.37-6.82l89.5-19.58c.53-.12,1.08-.18,1.63-.14,2.68,.21,4.7,2.11,5.23,4.5l22,100.53"/><path class="h" d="M207.29,316.88l-22.18,4.85-4.99-22.78-22.18,4.85,4.99,22.78-22.18,4.85,4.85,22.18,22.18-4.85,4.85,22.18,22.18-4.85-4.85-22.18,22.18-4.85-4.85-22.18Z"/><path class="k" d="M388.96,314.9c1.69,7.73-3.2,15.36-10.93,17.05s-15.36-3.2-17.05-10.93c-1.69-7.73,3.2-15.36,10.93-17.05s15.36,3.2,17.05,10.93"/><path class="k" d="M419.57,267.16c1.69,7.73-3.2,15.36-10.93,17.05-7.73,1.69-15.36-3.2-17.05-10.93s3.2-15.36,10.93-17.05c7.73-1.69,15.36,3.2,17.05,10.93"/><path class="m" d="M261.96,351.41l16.79-3.67"/><path class="m" d="M301.54,342.75l16.79-3.67"/><path class="l" d="M228.76,305.9l100.73-22.04"/><path class="l" d="M233.61,328.08l100.73-22.04"/><path class="n" d="M111.47,280.04l313.19-68.53c3.09-.68,6.27,1.87,6.82,4.37l26.94,123.12c.68,3.09-1.28,6.14-4.37,6.82l-313.19,68.52c-3.09,.68-6.27-1.87-6.82-4.37l-26.94-123.12c-.68-3.09,1.28-6.14,4.37-6.82h0Z"/><polygon class="e" points="170.42 306.72 167.38 316.26 177.15 314.12 170.42 306.72"/><polygon class="e" points="203.86 328.87 194.33 325.84 196.47 335.61 203.86 328.87"/><polygon class="e" points="149.15 340.62 158.68 343.66 156.54 333.88 149.15 340.62"/><polygon class="e" points="182.68 363 185.71 353.47 175.94 355.61 182.68 363"/></g><rect class="d" x="81.42" y="143.94" width="125" height="5" rx="2.5" ry="2.5" transform="translate(-61.39 144.66) rotate(-45)"/><rect class="d" x="29.59" y="144.36" width="125" height="5" rx="2.5" ry="2.5" transform="translate(-76.88 108.13) rotate(-45)"/></g></g></svg>